<svg width="557" height="272" viewBox="0 0 557 272" fill="none" xmlns="http://www.w3.org/2000/svg">
<g opacity="0.6">
<path fill-rule="evenodd" clip-rule="evenodd" d="M591.673 174.538C683.368 199.631 781.058 213.12 845.86 283.236C922.188 365.822 978.409 473.396 962.182 575.428C945.43 680.759 856.265 751.397 763.02 804.106C667.79 857.937 559.194 889.159 443.792 868.461C314.088 845.198 166.697 799.863 102.762 685.685C40.4746 574.45 105.342 453.061 150.266 344.269C185.953 257.844 237.496 176.001 327.517 141.386C409.327 109.928 501.658 149.905 591.673 174.538Z" stroke="white"/>
<path fill-rule="evenodd" clip-rule="evenodd" d="M654.399 134.204C774.696 168.855 847.547 288.539 903.376 398.061C951.995 493.437 963.232 596.44 939.533 693.56C916.549 787.75 869.011 881.194 776.669 917.325C690.426 951.068 595.123 880.974 498.493 866.124C370.533 846.458 219.972 912.343 128.786 817.756C35.4495 720.938 63.1614 570.795 102.207 455.056C137.328 350.949 230.149 287.826 326.436 231.878C426.702 173.618 533.927 99.5034 654.399 134.204Z" stroke="white"/>
<path fill-rule="evenodd" clip-rule="evenodd" d="M674.308 160.337C789.592 168.689 912.832 244.242 960.982 348.727C1006.45 447.387 922.437 537.627 892.942 634.764C867.46 718.683 871.864 816.144 802.617 870.271C723.862 931.832 612.333 972.151 509.396 934.569C409.81 898.211 384.618 779.508 322.175 694.867C252.17 599.976 96.825 520.528 127.327 416.678C158.192 311.592 333.955 357.992 435.031 310.623C524.611 268.642 570.274 152.8 674.308 160.337Z" stroke="white"/>
<path fill-rule="evenodd" clip-rule="evenodd" d="M621.566 141.039C732.334 166.085 819.594 261.229 869.685 361.305C914.582 451.007 878.609 542.728 869.851 637.09C859.144 752.445 910.331 901.974 813.692 964.594C716.482 1027.58 580.249 936.909 459.239 903.155C336.947 869.043 183.156 876.108 115.661 769.888C48.3624 663.978 117.282 541.656 162.057 435.468C197.428 351.583 260.916 290.978 338.58 241.216C424.392 186.232 514.185 116.759 621.566 141.039Z" stroke="white"/>
<path fill-rule="evenodd" clip-rule="evenodd" d="M600.291 182.921C684.719 217.125 782.264 220.414 840.996 289.475C906.259 366.215 920.105 463.939 919.197 557.91C918.01 680.633 931.238 822.553 835.141 895.241C732.724 972.709 577.189 961.31 443.824 917.483C315.944 875.458 204.268 784.629 142.872 667.744C86.6226 560.656 111.118 444.954 138.084 335.415C163.967 230.272 185.104 101.494 290.86 66.6021C392.958 32.9175 493.991 139.857 600.291 182.921Z" stroke="white"/>
<path fill-rule="evenodd" clip-rule="evenodd" d="M583.878 235.269C699.326 263.902 857.693 228.832 914.328 331.737C971.578 435.761 833.503 522.339 799.479 627.019C771.692 712.513 815.48 834.628 736.241 879.658C656.835 924.782 554.699 844.33 459.235 820.371C357.24 794.773 227.992 821.954 166.794 736.739C105.319 651.14 179.388 551.295 197.18 455.475C215.791 355.247 182.506 223.058 271.594 172.327C360.924 121.458 476.367 208.604 583.878 235.269Z" stroke="white"/>
<path fill-rule="evenodd" clip-rule="evenodd" d="M596.476 203.886C679.61 231.791 743.148 290.567 800.308 356.871C871.035 438.912 957.167 521.179 957.126 622.228C957.079 738.513 907.943 863.471 800.087 907.733C695.935 950.475 577.833 865.041 464.128 824.546C363.735 788.792 253.272 771.479 186.373 689.164C113.245 599.184 71.0448 480.273 101.941 378.898C131.49 281.942 236.774 235.604 335.222 200.765C417.425 171.674 508.373 174.315 596.476 203.886Z" stroke="white"/>
<path fill-rule="evenodd" clip-rule="evenodd" d="M591.166 185.227C688.951 214.736 753.723 301.377 810.005 385.58C866.945 470.768 916.033 562.275 906.832 657.49C896.643 762.929 858.734 878.953 758.606 917.48C662.361 954.512 554.406 877.245 453.364 831.972C374.861 796.798 302.748 755.801 249.323 689.29C188.302 613.322 125.246 527.619 137.164 438.32C149.62 344.993 227.533 280.662 309.995 234.692C393.579 188.096 492.176 155.355 591.166 185.227Z" stroke="white"/>
</g>
</svg>
